<!-- Generated by IcoMoon.io -->
<svg version="1.1" xmlns="http://www.w3.org/2000/svg" width="32" height="32" viewBox="0 0 32 32">
<title>play-rounded</title>
<path fill="rgba(255, 255, 255, 0.14)" stroke="#fff" stroke-linejoin="miter" stroke-linecap="butt" stroke-miterlimit="4" stroke-width="1.0323" d="M32 16c0 8.837-7.163 16-16 16s-16-7.163-16-16c0-8.837 7.163-16 16-16s16 7.163 16 16z"></path>
<path fill="none" stroke="#fff" stroke-linejoin="miter" stroke-linecap="butt" stroke-miterlimit="4" stroke-width="1.0323" d="M31.484 16c0 8.552-6.932 15.484-15.484 15.484s-15.484-6.932-15.484-15.484c0-8.552 6.932-15.484 15.484-15.484s15.484 6.932 15.484 15.484z"></path>
<path fill="#fff" d="M21.862 16.34l-8.667 5.778c-0.064 0.043-0.142 0.069-0.227 0.069-0.226 0-0.409-0.183-0.409-0.409v0-11.556c0-0.226 0.183-0.409 0.409-0.409 0.084 0 0.163 0.026 0.228 0.069l-0.001-0.001 8.667 5.781c0.11 0.074 0.182 0.199 0.182 0.34s-0.072 0.266-0.181 0.339l-0.001 0.001z"></path>
</svg>
